<?xml version="1.0" standalone="no"?>
<!DOCTYPE svg PUBLIC "-//W3C//DTD SVG 20010904//EN"
 "http://www.w3.org/TR/2001/REC-SVG-20010904/DTD/svg10.dtd">
<svg version="1.0" xmlns="http://www.w3.org/2000/svg"
 width="1001.000000pt" height="1001.000000pt" viewBox="0 0 1001.000000 1001.000000"
 preserveAspectRatio="xMidYMid meet">
<metadata>
Created by potrace 1.14, written by Peter Selinger 2001-2017
</metadata>
<g transform="translate(0.000000,1001.000000) scale(0.100000,-0.100000)"
fill="#000000" stroke="none">
<path d="M4333 9990 c4 -15 0 -20 -16 -21 -12 -1 -35 -3 -52 -5 -16 -2 -50 -5
-75 -7 -25 -2 -56 -8 -70 -14 -14 -6 -45 -14 -70 -18 -25 -3 -90 -17 -145 -30
-55 -14 -111 -26 -125 -29 -14 -3 -62 -16 -107 -29 -45 -13 -83 -21 -85 -16
-2 5 -25 -2 -53 -15 -36 -18 -53 -22 -62 -14 -10 8 -13 6 -13 -5 0 -16 -54
-37 -115 -43 -67 -7 -80 -11 -83 -25 -1 -9 -26 -24 -55 -34 -29 -10 -68 -25
-87 -34 -19 -8 -39 -14 -44 -12 -5 1 -12 -2 -15 -7 -8 -12 -171 -82 -171 -74
0 4 -4 2 -8 -4 -10 -15 -72 -47 -72 -37 0 5 -4 3 -8 -3 -8 -13 -143 -80 -154
-76 -5 1 -8 -2 -8 -7 0 -5 -24 -21 -52 -36 -29 -15 -71 -37 -92 -49 -22 -13
-48 -21 -58 -18 -11 3 -18 -1 -18 -11 0 -16 -17 -34 -39 -39 -8 -2 -21 -9 -30
-16 -33 -28 -93 -62 -107 -62 -8 0 -17 -7 -21 -15 -4 -11 -14 -14 -33 -11 -23
3 -27 1 -23 -14 6 -22 -39 -55 -61 -47 -9 4 -13 1 -10 -7 6 -16 -73 -80 -79
-63 -4 7 -6 6 -6 -4 -1 -9 -8 -22 -16 -29 -11 -10 -18 -9 -30 4 -16 15 -35 21
-35 11 0 -3 6 -14 12 -25 11 -16 9 -22 -7 -34 -11 -9 -30 -16 -43 -16 -14 0
-26 -9 -31 -23 -5 -13 -28 -39 -51 -58 -24 -19 -53 -45 -65 -58 -15 -15 -30
-22 -43 -19 -15 4 -18 1 -15 -13 4 -14 0 -19 -16 -19 -14 0 -21 -6 -21 -20 0
-11 -4 -20 -9 -20 -5 0 -46 -38 -92 -84 -46 -47 -87 -82 -91 -80 -5 3 -7 2 -6
-3 2 -5 -34 -46 -79 -92 -46 -46 -83 -87 -83 -92 0 -5 -9 -9 -20 -9 -13 0 -17
-5 -14 -14 3 -8 -3 -19 -15 -26 -12 -6 -21 -16 -21 -22 0 -6 -9 -20 -19 -32
-11 -12 -40 -42 -64 -68 -24 -26 -42 -50 -39 -53 3 -3 -4 -5 -15 -5 -16 0 -20
-5 -16 -18 3 -13 -6 -28 -26 -45 -17 -14 -31 -31 -31 -37 0 -6 -17 -27 -37
-48 -21 -20 -37 -42 -35 -49 1 -6 -7 -18 -18 -26 -11 -7 -17 -16 -14 -19 3 -3
-13 -25 -35 -47 -23 -23 -41 -50 -41 -59 0 -10 -13 -33 -29 -52 -15 -19 -31
-45 -35 -58 -4 -12 -12 -19 -18 -16 -6 4 -8 3 -5 -3 9 -14 -30 -73 -49 -73
-12 0 -14 -4 -7 -12 7 -9 2 -27 -18 -58 -15 -25 -38 -64 -50 -87 -12 -23 -27
-39 -32 -36 -6 3 -7 1 -4 -4 6 -9 -83 -199 -118 -253 -5 -8 -10 -22 -12 -30
-1 -8 -7 -16 -12 -18 -6 -2 -11 -12 -11 -22 0 -10 -4 -22 -10 -25 -5 -3 -10
-14 -10 -23 0 -10 -9 -34 -20 -55 -11 -20 -21 -40 -21 -44 -1 -5 -6 -19 -11
-33 -49 -136 -61 -160 -79 -165 -16 -5 -19 -12 -14 -35 6 -29 -21 -140 -34
-140 -4 0 -8 -15 -9 -32 0 -18 -6 -34 -11 -36 -6 -2 -9 -8 -5 -13 3 -5 -4 -9
-15 -9 -12 0 -21 -4 -21 -10 0 -5 5 -10 11 -10 7 0 9 -14 5 -38 -8 -58 -38
-162 -47 -162 -5 0 -6 -7 -3 -15 4 -8 1 -21 -5 -29 -6 -7 -8 -15 -5 -18 2 -3
-6 -54 -20 -114 -13 -60 -28 -131 -32 -157 -3 -27 -13 -51 -20 -54 -10 -4 -11
-10 -3 -24 5 -11 7 -24 4 -29 -6 -10 -8 -24 -21 -158 -4 -48 -12 -76 -20 -79
-21 -8 -21 -1091 0 -1107 16 -12 39 -155 30 -181 -4 -8 -1 -21 5 -29 7 -9 9
-29 5 -54 -5 -31 -2 -45 10 -57 9 -9 16 -26 16 -37 0 -11 11 -67 25 -124 14
-57 24 -113 24 -126 0 -13 7 -43 16 -68 10 -25 25 -75 35 -113 17 -62 17 -69
2 -83 -15 -15 -14 -18 11 -36 18 -13 27 -29 27 -48 0 -15 6 -30 13 -33 9 -3
41 -92 37 -105 0 -1 7 -16 15 -32 9 -17 11 -30 5 -30 -13 0 -13 -57 0 -65 5
-3 10 -1 10 4 0 6 4 11 9 11 10 0 61 -144 61 -173 0 -9 5 -17 10 -17 14 0 49
-78 50 -106 0 -12 7 -24 15 -28 8 -3 15 -17 15 -30 0 -14 6 -29 13 -33 13 -9
67 -116 72 -145 2 -10 15 -33 29 -51 14 -19 26 -37 26 -40 0 -3 16 -33 36 -67
34 -56 36 -63 23 -86 -11 -22 -11 -27 1 -34 8 -6 24 -10 35 -10 21 0 55 -46
49 -65 -2 -5 12 -28 31 -49 19 -22 35 -43 35 -48 0 -4 9 -17 21 -29 15 -15 18
-24 10 -33 -13 -15 -4 -26 20 -26 10 0 20 -8 24 -19 3 -10 14 -26 25 -36 11
-10 20 -26 20 -37 0 -10 7 -18 15 -18 8 0 19 -9 25 -20 6 -11 7 -20 3 -20 -4
0 3 -7 15 -16 12 -8 22 -24 22 -35 0 -10 4 -19 10 -19 17 0 61 -55 57 -72 -3
-11 3 -18 19 -22 13 -4 24 -10 24 -14 0 -4 23 -32 50 -62 27 -30 50 -61 50
-67 0 -7 7 -13 15 -13 8 0 15 -3 15 -7 0 -5 29 -39 65 -77 35 -38 61 -74 58
-80 -3 -6 -3 -8 2 -4 10 9 195 -171 195 -189 0 -7 7 -13 15 -13 9 0 18 -7 21
-15 3 -8 14 -17 25 -20 10 -4 19 -15 19 -26 0 -13 7 -19 21 -19 12 0 36 -13
53 -29 78 -72 111 -101 117 -101 4 0 12 -14 18 -31 6 -18 15 -28 22 -24 6 4
22 1 36 -6 21 -11 24 -18 18 -47 l-6 -33 34 6 c27 5 36 3 41 -11 5 -13 9 -15
14 -7 6 9 16 5 36 -12 16 -14 33 -25 39 -25 5 0 7 -9 4 -20 -4 -17 0 -20 24
-20 16 0 37 -9 49 -22 11 -12 28 -23 37 -24 10 -2 23 -11 31 -21 7 -10 19 -17
27 -15 8 1 20 -6 27 -18 7 -11 20 -20 29 -20 9 0 22 -6 28 -14 6 -8 25 -19 41
-26 19 -8 30 -20 30 -32 0 -16 5 -19 24 -14 15 4 32 -1 47 -12 13 -10 49 -30
79 -46 30 -16 69 -39 87 -52 17 -13 36 -24 42 -24 5 0 49 -20 98 -44 48 -24
127 -60 176 -81 48 -21 87 -42 87 -47 0 -5 6 -8 13 -6 22 5 187 -63 187 -77 0
-14 52 -31 83 -26 22 3 117 -28 117 -38 0 -4 13 -8 29 -8 15 0 43 -10 60 -22
22 -16 41 -21 59 -18 14 3 55 -4 90 -15 56 -17 282 -69 367 -84 43 -7 99 -27
107 -38 3 -5 50 -10 105 -11 98 -3 156 -9 203 -21 42 -12 134 -12 149 0 11 8
13 8 7 -2 -6 -10 1 -12 28 -9 20 2 36 1 36 -4 0 -4 152 -6 338 -4 449 5 542 9
552 24 4 7 22 12 41 10 19 -1 41 1 49 4 13 5 147 30 280 52 19 3 51 10 71 14
21 5 43 5 50 0 8 -4 17 -1 24 8 7 9 33 18 66 21 30 2 59 8 64 12 15 12 127 42
154 42 14 0 31 7 39 15 8 8 21 12 28 9 7 -3 16 -1 19 4 4 6 19 10 34 10 15 0
31 4 36 8 15 13 94 40 153 53 28 6 52 14 52 19 0 4 12 12 28 18 15 6 73 29
130 51 56 23 109 41 116 41 8 0 16 3 18 8 2 6 172 94 188 97 3 0 21 9 40 20
88 47 126 65 141 65 9 0 19 6 22 13 2 7 30 26 62 41 31 16 62 34 68 40 7 6 29
20 50 31 20 11 37 23 37 27 0 5 5 8 11 8 6 0 31 15 57 32 26 18 55 34 64 35 9
2 33 19 52 39 20 21 36 34 36 30 0 -4 10 3 23 15 12 11 31 25 42 30 32 14 59
33 68 47 4 6 15 12 22 12 8 0 15 6 15 13 0 8 11 20 25 27 14 7 25 17 25 22 0
4 11 8 25 8 14 0 25 6 25 13 0 14 44 57 58 57 4 0 19 12 33 27 40 44 90 83
105 83 8 0 14 9 14 20 0 11 4 20 9 20 6 0 38 27 72 60 34 33 66 60 70 60 5 0
9 7 9 16 0 9 9 18 20 21 11 3 20 11 20 18 0 8 9 17 20 20 11 3 20 10 20 15 0
5 23 31 50 59 28 28 50 54 50 59 0 5 11 14 25 20 14 6 25 17 25 23 0 7 10 22
23 34 12 12 36 39 54 61 18 21 43 53 57 69 35 41 38 45 64 82 12 17 31 35 42
38 11 4 20 13 20 21 0 8 5 20 10 27 23 27 110 159 110 167 0 5 10 10 23 12 16
2 21 9 20 26 -2 12 2 22 8 22 5 0 7 5 4 10 -3 5 -1 10 4 10 6 0 11 7 11 15 0
8 4 15 8 15 5 0 15 12 23 28 7 15 26 46 41 69 15 23 28 46 28 52 0 6 9 11 20
11 13 0 20 7 20 20 0 22 15 55 75 165 42 77 44 82 71 140 11 22 22 42 27 43 4
2 7 8 7 13 0 5 15 42 34 82 39 81 68 147 71 162 2 6 14 36 29 67 14 31 26 63
26 72 0 8 5 18 10 21 6 4 8 11 5 16 -4 5 1 12 9 15 9 3 16 14 16 24 0 27 51
180 60 180 4 0 10 21 13 46 2 26 10 50 17 54 7 4 14 25 15 46 3 47 34 162 46
170 5 3 9 16 9 29 0 13 16 102 35 197 37 185 53 286 64 412 5 46 13 82 19 84
9 3 12 156 11 605 0 331 -3 596 -6 590 -8 -20 -33 -15 -35 7 -1 11 -3 32 -5
48 -1 15 -5 54 -8 86 -3 33 -9 64 -14 70 -5 6 -12 31 -16 56 -4 25 -18 91 -31
147 -13 57 -21 109 -18 118 4 8 2 15 -3 15 -11 0 -53 144 -53 179 0 11 4 21 9
21 6 0 9 9 8 19 0 11 -4 18 -8 15 -4 -2 -14 -2 -21 1 -14 6 -18 17 -19 58 0 9
-4 17 -9 17 -12 0 -43 109 -36 127 3 8 1 11 -4 8 -6 -3 -13 2 -16 12 -4 10
-22 58 -41 107 -19 49 -36 103 -38 119 -2 17 -11 34 -19 39 -8 4 -17 21 -21
37 -3 16 -27 69 -51 117 -25 48 -43 95 -41 105 3 11 0 16 -8 13 -12 -5 -37 43
-39 74 -1 7 -6 16 -12 20 -15 10 -47 73 -40 80 3 3 -3 11 -14 19 -11 8 -20 18
-20 23 0 5 -11 26 -25 46 -14 21 -28 49 -32 63 -3 14 -14 32 -24 41 -19 16
-55 73 -65 103 -4 9 -10 17 -14 17 -10 0 -25 40 -22 54 2 4 -2 14 -8 20 -5 7
-7 16 -3 19 3 4 0 7 -7 7 -15 0 -70 55 -70 69 0 6 -12 22 -26 37 -22 21 -24
28 -13 36 11 8 11 9 -3 5 -25 -8 -74 59 -58 78 7 8 16 12 21 9 5 -3 6 2 3 11
-7 17 -30 14 -27 -4 2 -6 -3 -11 -10 -11 -19 0 -60 59 -53 76 3 9 -1 14 -14
14 -11 0 -20 4 -20 9 0 5 -13 23 -30 39 -16 17 -30 37 -30 44 0 8 -13 22 -30
31 -16 10 -30 24 -30 30 0 7 -9 18 -21 25 -12 8 -18 19 -15 27 3 8 2 14 -2 14
-18 -3 -32 2 -32 11 0 5 -18 27 -40 47 -22 21 -40 44 -40 50 0 7 -4 12 -9 10
-13 -3 -123 111 -117 122 3 5 0 8 -7 7 -7 0 -46 30 -87 67 -58 54 -71 70 -59
78 10 6 8 9 -12 9 -15 0 -36 11 -51 28 -30 31 -78 72 -78 66 0 -11 -63 54 -71
73 -5 14 -14 20 -26 17 -11 -3 -27 3 -37 15 -11 12 -16 21 -12 21 4 0 1 7 -8
15 -8 8 -24 15 -36 15 -13 0 -24 8 -27 20 -3 11 -12 20 -20 20 -17 0 -45 25
-37 33 3 3 -3 4 -13 4 -11 -1 -18 4 -17 15 1 10 -4 14 -11 11 -20 -7 -55 15
-65 41 -6 16 -24 28 -63 40 -37 12 -57 24 -60 37 -3 12 -11 17 -20 13 -9 -3
-24 3 -35 13 -10 10 -25 19 -33 21 -28 6 -43 30 -30 45 9 12 7 16 -15 21 -14
4 -34 4 -44 1 -11 -3 -29 1 -42 9 -40 26 -171 96 -231 123 -43 20 -56 31 -52
42 5 12 3 13 -6 4 -9 -9 -22 -6 -58 12 -60 32 -162 77 -181 81 -8 2 -16 8 -18
13 -2 6 -9 11 -15 11 -25 0 -187 65 -187 75 0 11 -77 38 -89 31 -12 -8 -100
21 -117 38 -8 8 -21 13 -29 10 -8 -4 -31 3 -50 15 -19 11 -41 18 -48 15 -8 -3
-63 8 -123 24 -128 34 -199 52 -234 59 -14 2 -58 11 -99 19 -41 7 -77 18 -80
22 -9 13 -50 21 -53 11 -4 -12 -281 26 -286 40 -3 8 -166 11 -604 11 -595 0
-600 0 -595 -20z"/>
</g>
</svg>
